<?xml version="1.0" encoding="UTF-8" standalone="no"?>
<svg
   xmlns:dc="http://purl.org/dc/elements/1.1/"
   xmlns:cc="http://creativecommons.org/ns#"
   xmlns:rdf="http://www.w3.org/1999/02/22-rdf-syntax-ns#"
   xmlns:svg="http://www.w3.org/2000/svg"
   xmlns="http://www.w3.org/2000/svg"
   xmlns:sodipodi="http://sodipodi.sourceforge.net/DTD/sodipodi-0.dtd"
   xmlns:inkscape="http://www.inkscape.org/namespaces/inkscape"
   version="1.1"
   x="0px"
   y="0px"
   viewBox="0 0 57.960999 62"
   enable-background="new 0 0 64 64"
   xml:space="preserve"
   id="svg843"
   sodipodi:docname="swipe_left_right.svg"
   width="57.960999"
   height="62"
   inkscape:version="0.92.3 (2405546, 2018-03-11)"><metadata
     id="metadata849"><rdf:RDF><cc:Work
         rdf:about=""><dc:format>image/svg+xml</dc:format><dc:type
           rdf:resource="http://purl.org/dc/dcmitype/StillImage" /><dc:title></dc:title></cc:Work></rdf:RDF></metadata><defs
     id="defs847" /><sodipodi:namedview
     pagecolor="#ffffff"
     bordercolor="#666666"
     borderopacity="1"
     objecttolerance="10"
     gridtolerance="10"
     guidetolerance="10"
     inkscape:pageopacity="0"
     inkscape:pageshadow="2"
     inkscape:window-width="1920"
     inkscape:window-height="1000"
     id="namedview845"
     showgrid="false"
     fit-margin-top="0"
     fit-margin-left="0"
     fit-margin-right="0"
     fit-margin-bottom="0"
     inkscape:zoom="9.3375"
     inkscape:cx="28.98"
     inkscape:cy="35.851406"
     inkscape:window-x="-11"
     inkscape:window-y="1609"
     inkscape:window-maximized="1"
     inkscape:current-layer="svg843" /><g
     id="g837"
     transform="translate(-3.02,-1)"><path
       d="m 51.401,30.498 -0.009,-0.734 c -0.062,-5.028 -4.909,-6.073 -7.561,-4.089 -0.235,-0.506 -0.561,-0.974 -0.969,-1.382 -0.915,-0.917 -2.128,-1.421 -3.416,-1.421 -1.021,0 -1.977,0.32 -2.765,0.872 L 36.68,12.591 C 36.675,9.93 34.506,7.765 31.846,7.765 c -2.662,0 -4.828,2.166 -4.828,4.828 V 41.1 l -6.465,-0.007 c -2.623,0 -4.468,1.679 -4.7,4.277 -0.214,2.394 1.078,5.143 3.61,5.6 0.059,0.011 0.118,0.016 0.178,0.016 7.239,0 8.254,1.556 9.149,2.928 0.27,0.413 0.549,0.792 0.877,1.129 -0.461,0.459 -0.757,1.117 -0.757,1.856 v 3.597 c 0,1.381 1.014,2.504 2.26,2.504 h 20.094 c 1.247,0 2.262,-1.123 2.262,-2.504 v -3.597 c 0,-0.777 -0.328,-1.463 -0.831,-1.923 3.551,-2.744 5.06,-8.781 5.06,-11.714 l 0.004,-8.31 c -10e-4,-4.526 -3.808,-5.759 -6.358,-4.454 z m -0.137,25.897 c 0.08,0 0.262,0.19 0.262,0.504 v 3.597 C 51.526,60.809 51.344,61 51.264,61 H 31.17 c -0.079,0 -0.26,-0.19 -0.26,-0.504 v -3.597 c 0,-0.314 0.181,-0.504 0.26,-0.504 h 2.584 14.926 z m 4.49,-13.133 c 0,3.33 -2.407,11.133 -7.074,11.133 H 33.754 c -2.263,0 -2.648,-0.592 -3.289,-1.574 -1.362,-2.089 -3.112,-3.82 -10.725,-3.835 -1.295,-0.294 -2.024,-1.994 -1.896,-3.438 0.066,-0.738 0.462,-2.456 2.715,-2.456 l 7.457,0.008 h 0.001 c 0.265,0 0.52,-0.105 0.707,-0.292 0.187,-0.187 0.293,-0.442 0.293,-0.708 V 12.593 c 0,-1.56 1.269,-2.828 2.828,-2.828 1.559,0 2.831,1.27 2.834,2.829 l 0.002,7.495 c 0,0.004 -0.002,0.007 -0.002,0.01 l 0.004,10.905 c 0,0.552 0.448,1 1,1 0.553,0 1,-0.448 1,-1 l -10e-4,-3.863 c 0.269,-1.317 1.42,-2.269 2.765,-2.269 0.753,0 1.464,0.296 2.001,0.834 0.535,0.536 0.828,1.244 0.827,1.994 l -0.072,5.553 c -0.011,0.552 0.428,1.009 0.979,1.021 0.007,0 0.014,0 0.021,0 0.543,0 0.988,-0.435 1,-0.979 l 0.072,-4.618 c 0.013,-1.261 1.27,-1.942 2.446,-1.942 1.273,0 2.644,0.803 2.671,3.054 l 0.064,6.357 c 0,0.552 0.447,1 1,1 0.553,0 1,-0.448 1,-1 l -0.021,-2.672 c 0.034,-0.905 1.063,-1.464 2.002,-1.464 0.544,0 2.319,0.212 2.319,2.944 z"
       id="path833"
       inkscape:connector-curvature="0" /><path
       d="m 60.977,10.569 c 0,-0.007 0.004,-0.013 0.004,-0.02 0,-0.002 -0.001,-0.004 -0.001,-0.007 -10e-4,-0.005 0.001,-0.009 0.001,-0.014 -0.002,-0.115 -0.031,-0.225 -0.07,-0.33 C 60.902,10.176 60.894,10.154 60.885,10.133 60.838,10.032 60.778,9.939 60.699,9.859 60.685,9.844 60.67,9.834 60.655,9.82 60.619,9.787 60.586,9.751 60.545,9.723 L 54.377,5.518 C 53.92,5.208 53.299,5.325 52.987,5.781 52.675,6.238 52.794,6.86 53.25,7.171 l 3.489,2.378 H 43.115 C 41.805,4.635 37.328,1 32.006,1 26.669,1 22.183,4.657 20.887,9.593 H 7.26 L 10.751,7.211 C 11.207,6.899 11.325,6.277 11.014,5.821 10.703,5.365 10.079,5.248 9.624,5.558 L 3.456,9.767 C 3.415,9.795 3.382,9.83 3.346,9.863 3.331,9.877 3.316,9.888 3.301,9.902 3.224,9.983 3.163,10.075 3.117,10.176 3.106,10.198 3.098,10.22 3.09,10.242 c -0.039,0.105 -0.068,0.214 -0.07,0.33 0,0.005 0.002,0.009 10e-4,0.014 0,0.002 -10e-4,0.004 -10e-4,0.007 0,0.007 0.004,0.013 0.004,0.021 0.003,0.115 0.027,0.226 0.067,0.332 0.007,0.017 0.011,0.036 0.018,0.054 0.045,0.101 0.108,0.192 0.185,0.274 0.018,0.018 0.035,0.034 0.054,0.05 0.025,0.023 0.046,0.05 0.074,0.071 l 6.172,4.601 c 0.18,0.134 0.389,0.198 0.597,0.198 0.306,0 0.606,-0.139 0.803,-0.402 0.33,-0.443 0.238,-1.069 -0.204,-1.399 L 7.035,11.594 h 13.511 c -0.024,0.303 -0.047,0.607 -0.047,0.916 0,2.03 0.532,4.02 1.539,5.755 0.186,0.32 0.521,0.498 0.866,0.498 0.17,0 0.343,-0.043 0.501,-0.135 0.478,-0.277 0.641,-0.889 0.363,-1.367 -0.831,-1.431 -1.27,-3.073 -1.27,-4.751 0,-5.244 4.266,-9.51 9.508,-9.51 5.244,0 9.51,4.266 9.51,9.509 0,1.568 -0.388,3.118 -1.121,4.483 -0.262,0.486 -0.079,1.093 0.407,1.354 0.491,0.262 1.093,0.079 1.354,-0.408 0.89,-1.655 1.359,-3.533 1.359,-5.43 0,-0.324 -0.022,-0.643 -0.049,-0.96 h 13.499 l -3.755,2.799 c -0.442,0.33 -0.534,0.957 -0.204,1.399 0.196,0.263 0.497,0.402 0.803,0.402 0.208,0 0.417,-0.064 0.597,-0.198 l 6.172,-4.601 c 0.028,-0.021 0.05,-0.048 0.075,-0.071 0.018,-0.017 0.035,-0.032 0.053,-0.05 0.076,-0.082 0.139,-0.173 0.185,-0.273 0.008,-0.018 0.012,-0.037 0.019,-0.055 0.039,-0.104 0.064,-0.215 0.067,-0.331 z"
       id="path835"
       inkscape:connector-curvature="0" /></g></svg>